<mxfile host="app.diagrams.net" agent="Mozilla/5.0 (Windows NT 10.0; Win64; x64) AppleWebKit/537.36 (KHTML, like Gecko) Chrome/135.0.0.0 Safari/537.36" version="27.0.3">
  <diagram name="第 1 页" id="d9a0k_mFq8F035uaQbnA">
    <mxGraphModel dx="1901" dy="2205" grid="1" gridSize="10" guides="1" tooltips="1" connect="1" arrows="1" fold="1" page="1" pageScale="1" pageWidth="827" pageHeight="1169" math="0" shadow="0">
      <root>
        <mxCell id="0" />
        <mxCell id="1" parent="0" />
        <mxCell id="zPP25lYwPmgQLzwcbYbT-2" value="ItemData&lt;div&gt;&lt;span style=&quot;font-weight: normal;&quot;&gt;&lt;font style=&quot;font-size: 15px; color: rgb(0, 25, 255);&quot;&gt;string itemName;&lt;/font&gt;&lt;/span&gt;&lt;/div&gt;&lt;div&gt;&lt;span style=&quot;font-weight: normal;&quot;&gt;&lt;font style=&quot;font-size: 15px; color: rgb(0, 25, 255);&quot;&gt;Sprite icon;&lt;/font&gt;&lt;/span&gt;&lt;/div&gt;" style="rounded=1;whiteSpace=wrap;html=1;fillColor=#fff2cc;strokeColor=#d6b656;fontSize=20;fontStyle=1;fontFamily=Comic Sans MS;" vertex="1" parent="1">
          <mxGeometry x="30" y="30" width="280" height="140" as="geometry" />
        </mxCell>
        <mxCell id="zPP25lYwPmgQLzwcbYbT-6" value="Inventory&lt;div&gt;&lt;br&gt;&lt;div&gt;&lt;font color=&quot;#0019ff&quot;&gt;&lt;span style=&quot;font-size: 15px; font-weight: 400;&quot;&gt;List&amp;lt;InventoryItem&amp;gt; inventoryItems&lt;/span&gt;&lt;/font&gt;&lt;/div&gt;&lt;div&gt;&lt;span style=&quot;font-weight: normal;&quot;&gt;&lt;font style=&quot;font-size: 15px; color: rgb(0, 25, 255);&quot;&gt;Dictionary&amp;lt;ItemData, InventoryItem&amp;gt; inventoryDictionary&lt;/font&gt;&lt;/span&gt;&lt;/div&gt;&lt;/div&gt;&lt;div&gt;&lt;span style=&quot;font-weight: normal;&quot;&gt;&lt;font style=&quot;font-size: 15px; color: rgb(0, 25, 255);&quot;&gt;&lt;br&gt;&lt;/font&gt;&lt;/span&gt;&lt;/div&gt;&lt;div&gt;&lt;span style=&quot;font-weight: normal;&quot;&gt;&lt;font style=&quot;font-size: 15px; color: rgb(0, 25, 255);&quot;&gt;//Methods&lt;/font&gt;&lt;/span&gt;&lt;/div&gt;&lt;div&gt;&lt;font color=&quot;#0019ff&quot;&gt;&lt;span style=&quot;font-size: 15px; font-weight: 400;&quot;&gt;AddItem();&lt;/span&gt;&lt;/font&gt;&lt;/div&gt;&lt;div&gt;&lt;font color=&quot;#0019ff&quot;&gt;&lt;span style=&quot;font-size: 15px; font-weight: 400;&quot;&gt;RemoveItem();&lt;/span&gt;&lt;/font&gt;&lt;/div&gt;" style="rounded=1;whiteSpace=wrap;html=1;fillColor=#dae8fc;strokeColor=#6c8ebf;fontSize=20;fontStyle=1;fontFamily=Comic Sans MS;" vertex="1" parent="1">
          <mxGeometry x="1040" y="-140" width="880" height="520" as="geometry" />
        </mxCell>
        <mxCell id="zPP25lYwPmgQLzwcbYbT-7" value="" style="group" vertex="1" connectable="0" parent="1">
          <mxGeometry x="414" y="-120" width="540" height="440" as="geometry" />
        </mxCell>
        <mxCell id="zPP25lYwPmgQLzwcbYbT-3" value="InventoryItem&lt;div&gt;&lt;br&gt;&lt;div&gt;&lt;span style=&quot;font-weight: normal;&quot;&gt;&lt;font style=&quot;font-size: 15px; color: rgb(0, 25, 255);&quot;&gt;ItemData data;&lt;/font&gt;&lt;/span&gt;&lt;/div&gt;&lt;div&gt;&lt;span style=&quot;font-weight: normal;&quot;&gt;&lt;font style=&quot;font-size: 15px; color: rgb(0, 25, 255);&quot;&gt;int stackSize;&lt;/font&gt;&lt;/span&gt;&lt;/div&gt;&lt;/div&gt;&lt;div&gt;&lt;span style=&quot;font-weight: normal;&quot;&gt;&lt;font style=&quot;font-size: 15px; color: rgb(0, 25, 255);&quot;&gt;&lt;br&gt;&lt;/font&gt;&lt;/span&gt;&lt;/div&gt;&lt;div&gt;&lt;span style=&quot;font-weight: normal;&quot;&gt;&lt;font style=&quot;font-size: 15px; color: rgb(0, 25, 255);&quot;&gt;//Methods&lt;/font&gt;&lt;/span&gt;&lt;/div&gt;&lt;div&gt;&lt;span style=&quot;font-weight: normal;&quot;&gt;&lt;font style=&quot;font-size: 15px; color: rgb(0, 25, 255);&quot;&gt;InventoryItem(ItemData _newItemData)&lt;/font&gt;&lt;/span&gt;&lt;/div&gt;&lt;div&gt;&lt;span style=&quot;font-weight: normal;&quot;&gt;&lt;font style=&quot;font-size: 15px; color: rgb(0, 25, 255);&quot;&gt;{data = _newItemData;}&lt;/font&gt;&lt;/span&gt;&lt;/div&gt;&lt;div&gt;&lt;span style=&quot;font-weight: normal;&quot;&gt;&lt;font style=&quot;font-size: 15px; color: rgb(0, 25, 255);&quot;&gt;&lt;br&gt;&lt;/font&gt;&lt;/span&gt;&lt;/div&gt;&lt;div&gt;&lt;span style=&quot;font-weight: normal;&quot;&gt;&lt;font style=&quot;font-size: 15px; color: rgb(0, 25, 255);&quot;&gt;AddStack() =&amp;gt;&amp;nbsp;&lt;/font&gt;&lt;/span&gt;&lt;span style=&quot;color: rgb(0, 25, 255); font-size: 15px; font-weight: 400; background-color: transparent;&quot;&gt;stackSize++;&lt;/span&gt;&lt;/div&gt;&lt;div&gt;&lt;span style=&quot;font-weight: normal;&quot;&gt;&lt;font style=&quot;font-size: 15px; color: rgb(0, 25, 255);&quot;&gt;RemoveStack() =&amp;gt;&amp;nbsp;&lt;/font&gt;&lt;/span&gt;&lt;span style=&quot;background-color: transparent; font-size: 15px; font-weight: 400;&quot;&gt;&lt;font color=&quot;#0019ff&quot;&gt;stackSize--;&lt;/font&gt;&lt;/span&gt;&lt;/div&gt;" style="rounded=1;whiteSpace=wrap;html=1;fillColor=#f8cecc;strokeColor=#b85450;fontSize=20;fontStyle=1;fontFamily=Comic Sans MS;" vertex="1" parent="zPP25lYwPmgQLzwcbYbT-7">
          <mxGeometry width="540" height="440" as="geometry" />
        </mxCell>
        <mxCell id="zPP25lYwPmgQLzwcbYbT-4" value="ItemData data;&lt;div&gt;&lt;span style=&quot;font-weight: normal;&quot;&gt;&lt;font style=&quot;font-size: 15px; color: rgb(0, 25, 255);&quot;&gt;string itemName;&lt;/font&gt;&lt;/span&gt;&lt;/div&gt;&lt;div&gt;&lt;span style=&quot;font-weight: normal;&quot;&gt;&lt;font style=&quot;font-size: 15px; color: rgb(0, 25, 255);&quot;&gt;Sprite icon;&lt;/font&gt;&lt;/span&gt;&lt;/div&gt;" style="rounded=1;whiteSpace=wrap;html=1;fillColor=#fff2cc;strokeColor=#d6b656;fontSize=20;fontStyle=1;fontFamily=Comic Sans MS;" vertex="1" parent="zPP25lYwPmgQLzwcbYbT-7">
          <mxGeometry x="10" y="130" width="190" height="70" as="geometry" />
        </mxCell>
        <mxCell id="zPP25lYwPmgQLzwcbYbT-8" value="Inventory instance" style="rounded=1;whiteSpace=wrap;html=1;fillColor=#dae8fc;strokeColor=#6c8ebf;fontSize=20;fontStyle=1;fontFamily=Comic Sans MS;strokeWidth=3;" vertex="1" parent="1">
          <mxGeometry x="1241" y="-60" width="220" height="50" as="geometry" />
        </mxCell>
        <mxCell id="zPP25lYwPmgQLzwcbYbT-18" value="" style="group;fillColor=#dae8fc;strokeColor=#6c8ebf;" vertex="1" connectable="0" parent="1">
          <mxGeometry x="1250" y="250" width="460" height="160" as="geometry" />
        </mxCell>
        <mxCell id="zPP25lYwPmgQLzwcbYbT-9" value="Dictionary&lt;div&gt;&amp;lt;ItemData, InventoryItem&amp;gt;&lt;/div&gt;" style="shape=process;whiteSpace=wrap;html=1;backgroundOutline=1;fillColor=#d5e8d4;strokeColor=#82b366;fontStyle=1;fontSize=20;fontFamily=Comic Sans MS;labelPosition=center;verticalLabelPosition=top;align=center;verticalAlign=bottom;" vertex="1" parent="zPP25lYwPmgQLzwcbYbT-18">
          <mxGeometry y="84.21052631578947" width="460" height="75.78947368421052" as="geometry" />
        </mxCell>
        <mxCell id="zPP25lYwPmgQLzwcbYbT-13" value="ItemData" style="rounded=1;whiteSpace=wrap;html=1;fillColor=#fff2cc;strokeColor=#d6b656;fontSize=20;fontStyle=1;fontFamily=Comic Sans MS;" vertex="1" parent="zPP25lYwPmgQLzwcbYbT-18">
          <mxGeometry x="50" y="109.09090909090908" width="160" height="50.90909090909091" as="geometry" />
        </mxCell>
        <mxCell id="zPP25lYwPmgQLzwcbYbT-16" value="InventoryItem" style="rounded=1;whiteSpace=wrap;html=1;fillColor=#f8cecc;strokeColor=#b85450;fontSize=20;fontStyle=1;fontFamily=Comic Sans MS;container=0;" vertex="1" parent="zPP25lYwPmgQLzwcbYbT-18">
          <mxGeometry x="250" y="109.09090909090908" width="164" height="50.90909090909091" as="geometry" />
        </mxCell>
        <mxCell id="zPP25lYwPmgQLzwcbYbT-23" value="List&amp;lt;InventoryItem&amp;gt; inventoryItems" style="rounded=1;whiteSpace=wrap;html=1;fillColor=#f8cecc;strokeColor=#b85450;fontSize=20;fontStyle=1;fontFamily=Comic Sans MS;container=0;" vertex="1" parent="1">
          <mxGeometry x="1610" y="-110" width="238" height="90" as="geometry" />
        </mxCell>
      </root>
    </mxGraphModel>
  </diagram>
</mxfile>
